<?xml version="1.0" encoding="UTF-8"?>
<svg version="1.1" viewBox="0 0 2048 1332" width="3796" height="2470" xmlns="http://www.w3.org/2000/svg">
<path transform="translate(769,396)" d="m0 0h2l9 17 10 14 12 14 8 8 11 9 16 11 18 10 20 8 21 6 17 3 21 2 13 82 74 474 14 90 1 8v30l-3 19-5 18-8 19-10 17-10 13-9 10-12 12-16 12-17 10-20 9-20 6-23 4-16 1h-617l-23-2-23-5-20-7-20-10-12-8-13-10-13-12-9-10-12-17-12-23-7-21-4-21-1-11v-16l3-25 44-281 42-269 13-83 2-6 22-5 21-7 19-9 16-10 12-9 10-9 14-14 11-15 8-13h2l7 9 9 10 10 10 17 13 15 10 27 14 26 10 24 7 29 6 24 3 15 1h38l24-2 31-5 24-6 24-8 25-11 20-11 17-12 11-9 12-11 9-10zm-202 144-31 3-24 4-24 6-24 8-20 9-17 9-15 10-14 11-13 12-7 8-10 13-8 13-8 16-6 16-5 22-2 17v29l3 22 6 21 7 16 8 14 9 11 9 10 16 16 17 13 14 9 16 9 29 13 35 14 36 13 46 16 37 14 20 9 18 10 13 10 9 8 8 11 5 11 3 14v13l-3 14-4 10-9 13-9 9-15 10-16 7-16 5-15 3-20 2h-28l-26-3-24-5-23-7-28-11-33-16-15-8-15-6-11-3h-19l-14 5-12 9-9 10-7 12-6 18v20l4 11 10 13 10 9 16 11 21 12 25 12 24 9 26 8 25 6 36 6 20 2 17 1h39l28-2 28-4 26-6 20-6 21-8 21-10 18-11 13-10 13-11 10-10 9-11 11-16 10-19 7-19 5-22 2-16v-37l-3-21-6-21-7-17-9-15-11-14-14-15-13-12-13-10-15-10-27-14-29-13-39-15-83-29-30-12-19-9-14-9-10-8-6-5-8-11-5-12-2-10v-11l3-14 7-14 11-12 10-7 16-8 15-5 20-4 9-1h42l27 4 24 6 26 9 26 11 27 13 17 6 8 2h18l13-4 12-8 9-9 9-14 5-14 2-11v-8l-3-13-6-10-9-10-14-11-21-12-23-11-27-10-28-8-27-6-26-4-32-3z" fill="#F26E21"/>
<path transform="translate(545)" d="m0 0h28l27 2 27 4 26 6 23 7 24 10 20 10 17 11 13 10 10 9 13 13 11 15 9 16 6 16 3 13 1 8v10h162l11 15 11 16 16 23 42 60 16 23 14 20 12 17v2h-303l-3-8-22-73-26-87-2-8h50l-3-20-6-18-8-14-10-13-8-9-8-7-13-10-18-11-16-8-19-8-18-6-24-6-23-4-17-2-17-1h-28l-27 2-26 4-25 6-27 9-20 9-20 11-14 10-14 12-8 8-10 13-8 14-6 17-2 10-1 12h24l-3 12-32 107-17 57h-70l-171-1-67-1 4-7 12-16 13-18 14-19 13-18 14-19 26-36 14-19 13-18 3-4h188v-14l4-18 6-16 9-16 10-13 11-12 12-11 15-11 18-11 17-9 25-10 26-8 28-6 21-3z" fill="#F26E21"/>
<path transform="translate(381,160)" d="m0 0h325l9 29 43 144v3h-429l2-10 21-70 28-94z" fill="#F26E21"/>
<path transform="translate(1478,573)" d="m0 0h17l10 3 7 5 4 8 1 5v48h69l8 4 5 6 2 5 1 12-2 10-6 8-6 3-5 1h-66l1 124 3 13 7 10 10 9 16 8 19 7 44 13 18 8 15 8 12 8 13 10 12 11 10 10 12 16 10 19 5 17 1 7v22l6-11 11-12 9-7 10-5 12-3h17l9 2 8 5 4 7 1 4v16l-4 10-8 7-3 1h-29l-12 3-11 6-10 9-7 9-1 162-4 8-8 6-7 2-14 1-12-2-6-3-5-5-4-8-1-217-3-14-5-12-10-15-11-12-10-8-15-8-24-8-41-12-24-8-23-10-16-9-9-8-9-13-6-16-3-16-1-11v-125h-34l-9-3-5-4-4-8-1-13 2-9 4-7 10-5h37v-50l4-10 6-5 7-3z" fill="#F26E21"/>
<path transform="translate(326,348)" d="m0 0h432l-3 12-9 19-10 14-14 15-13 11-18 12-27 14-21 8-25 7-26 5-27 3h-47l-27-3-25-5-25-7-21-8-17-8-20-12-13-10-12-11-8-8-11-15-8-15-5-15z" fill="#F26E21"/>
<path transform="translate(1730,632)" d="m0 0h21l16 3 16 6 13 8 11 9 7 7 10 13 9 16 7 17 3 11v10l-3 8-7 7-17 8-37 15-41 17-39 16 4 8 9 11 10 8 12 6 8 2 11 1 15-2 17-6 14-8 12-11 9-10 8-11 7-6 5-2h11l9 4 8 7 4 7 1 8-4 13-7 12-9 11-9 9-13 10-13 8-16 8-15 6-17 5-11 2-11 1h-13l-15-2-17-5-17-9-13-10-11-11-10-13-11-19-9-20-7-22-4-20-1-11v-15l2-16 5-17 8-16 8-11 9-10 12-10 15-9 18-8 16-5zm-2 50-14 3-16 8-10 9-6 9-4 10-1 5v21l3 14 2 1 46-19 44-18 8-4-4-10-8-11-9-9-11-6-11-3z" fill="#F26E21"/>
<path transform="translate(1922,971)" d="m0 0h31l18 3 15 5 14 7 12 9 13 13 9 14 7 16 4 14 2 13 1 21-2 17-5 10-6 5-8 3h-146l4 17 5 12 6 9 5 6 10 7 11 5 16 3h17l16-3 13-5 17-9 7-4 7-2 9 1 8 4 7 8 3 7v14l-6 9-7 7-14 9-15 7-17 5-16 3-10 1h-27l-21-3-15-4-16-7-12-7-13-11-10-12-8-13-8-19-5-21-2-18v-27l2-19 5-21 6-16 9-17 8-10 13-13 15-10 16-7 14-4zm6 48-13 3-11 6-10 10-7 12-5 17-1 10h107l1-2-2-17-5-14-7-10-9-8-8-4-12-3z" fill="#F26E21"/>
<path transform="translate(1476,971)" d="m0 0h32l19 3 16 5 19 9 11 8 10 9 7 7 9 13 8 15 7 21 3 15 1 9v34l-3 20-6 20-8 17-10 14-9 10-10 9-14 9-15 7-21 6-15 2h-30l-19-3-17-5-16-8-11-7-13-11-11-13-8-13-7-15-6-21-3-23v-24l2-18 4-17 6-16 9-17 11-14 9-9 14-10 17-9 19-6zm13 47-14 2-12 5-9 6-10 10-7 11-6 16-3 15-1 12v14l2 18 4 15 8 16 6 8 8 8 14 8 12 3h23l13-4 11-6 9-8 9-13 6-14 4-18 1-9v-23l-3-19-5-15-6-11-8-10-10-8-10-5-10-3z" fill="#F26E21"/>
<path transform="translate(1276,634)" d="m0 0h22l22 3 19 5 16 7 12 7 9 8 4 8v11l-4 10-9 10-7 3h-12l-17-8-12-6-17-5-17-1-14 2-9 4-6 7-1 3v8l4 8 8 6 12 6 30 11 25 10 17 9 10 8 9 9 7 11 4 10 2 10v23l-4 16-6 12-8 10-10 9-14 8-13 5-19 4-10 1h-22l-17-2-20-5-16-6-15-8-13-10-5-7-1-3v-11l4-10 9-10 6-3 9-1 10 3 20 11 15 6 11 3 18 1 13-2 9-4 5-4 3-5 1-9-2-7-6-7-14-8-52-20-19-9-11-8-12-12-7-11-4-12-1-5v-25l3-13 7-14 11-12 8-7 16-8 15-5z" fill="#F26E21"/>
<path transform="translate(1219,910)" d="m0 0h18l10 3 8 7 3 8 1 50 69 1 8 4 4 5 3 8v14l-3 9-7 6-4 2-6 1h-65l1 120 2 12 4 9 4 5 9 5 4 1h17l12-4 9-4h10l8 4 6 8 3 9v10l-5 10-9 7-13 6-21 5-8 1h-23l-17-3-13-5-12-7-10-9-6-8-6-12-4-15-2-14v-131h-33l-9-2-8-7-3-8v-16l4-9 6-5 5-2 37-1 1-51 4-8 7-6z" fill="#F26E21"/>
<path transform="translate(0,348)" d="m0 0h307l-3 15-7 19-8 15-10 14-12 13-11 10-13 9-16 9-14 6-15 5-20 4-8 1h-33l-19-3-19-5-19-8-15-8-16-12-10-9-8-8-11-15-8-14-7-16-5-19z" fill="#F26E21"/>
<path transform="translate(786,348)" d="m0 0h300l2 1-1 9-5 16-7 16-10 16-11 13-12 12-13 10-17 10-18 8-21 6-19 3h-33l-19-3-21-6-18-8-14-8-12-9-10-9-11-11-10-14-9-16-6-15z" fill="#F26E21"/>
<path transform="translate(1925,636)" d="m0 0h8l10 2 6 3 6 7 1 3 1 23 6-11 9-10 9-8 15-7 10-2h15l12 3 8 7 3 8v15l-4 11-8 7-3 1h-29l-12 3-11 6-10 9-7 9-1 161-3 7-4 5-8 4-11 2-16-1-9-4-5-4-3-5-1-4v-222l3-7 4-5 8-4z" fill="#F26E21"/>
<path transform="translate(1107,640)" d="m0 0h13l12 3 7 5 4 7 1 4v215l-3 9-8 7-8 3-7 1h-9l-11-2-8-5-4-5-3-9v-212l3-10 7-7 8-3z" fill="#F26E21"/>
<path transform="translate(1105,544)" d="m0 0h17l11 4 10 9 5 10 1 3v18l-4 10-7 8-9 6-7 2h-17l-11-4-10-9-5-10-1-4v-16l4-11 9-10 10-5z" fill="#F26E21"/>
</svg>
