<?xml version="1.0" encoding="UTF-8"?>
<svg version="1.1" viewBox="0 0 1652 2048" width="1993" height="2470" xmlns="http://www.w3.org/2000/svg">
<path transform="translate(1183,608)" d="m0 0 2 2 8 16 12 19 13 17 9 10 7 8 10 10 11 9 15 12 17 11 16 9 16 8 19 8 22 7 20 5 24 4 29 2 2 1 22 141 65 416 19 122 20 128 11 70 11 72 8 51 1 12v32l-2 20-5 24-8 26-10 23-12 21-14 20-12 14-11 12-14 13-14 11-16 11-19 11-23 11-25 9-24 6-25 4-11 1h-978l-24-3-24-5-26-8-23-10-21-11-14-9-14-10-14-12-15-14-10-11-13-17-10-15-9-16-10-21-9-27-5-22-3-25v-33l3-26 19-121 23-147 19-122 20-128 32-205 40-256 2-11 30-7 20-6 21-8 25-12 17-10 16-11 14-11 12-11 10-9 7-8 11-13 12-17 9-15 2-3 3 1 9 12 11 12 9 10 10 9 13 11 18 13 17 11 17 10 16 8 25 11 27 10 31 9 25 6 36 6 26 3 39 2h23l39-2 33-4 29-5 40-10 33-11 26-11 21-10 23-13 15-10 19-14 15-13 14-13 7-8 10-12 12-17zm-298 222-34 2-33 4-24 4-27 6-25 7-24 8-26 11-21 10-27 16-18 13-11 9-10 9-12 11-7 8-12 14-10 14-10 16-10 19-8 20-8 26-5 27-2 20v41l3 26 4 20 7 23 10 23 8 14 8 12 8 10 12 14 7 7 6 7 8 7 12 11 14 11 17 12 20 12 23 12 28 13 36 15 39 15 36 13 34 12 24 8 52 19 35 14 18 8 23 12 12 8 12 9 14 12 7 7 10 14 7 15 4 14 1 7v25l-3 15-5 14-7 13-9 12-15 15-16 11-19 10-24 9-25 6-26 4-14 1h-47l-28-3-28-5-28-7-36-12-28-11-26-12-62-31-19-7-20-4h-10l-16 3-13 5-10 6-10 8-10 10-10 14-10 21-5 19-1 9v12l3 14 5 12 9 12 9 10 10 9 15 11 19 12 21 12 28 14 26 11 24 9 32 10 35 9 35 7 34 5 31 3 40 2h30l39-2 30-3 32-5 28-6 29-8 27-9 26-11 17-8 23-13 19-13 12-9 13-11 13-12 8-8 9-11 10-12 14-21 10-18 9-20 8-24 5-21 4-24 1-12v-51l-3-26-6-27-7-21-8-18-11-20-14-19-9-10-7-8-12-13-13-12-13-11-16-12-15-10-15-9-27-14-33-15-34-14-39-15-42-15-56-19-49-18-32-13-27-13-19-12-12-9-14-12-8-9-7-11-5-11-4-14-1-9v-13l2-14 5-16 8-14 9-11 9-9 17-12 23-11 24-8 31-6 23-2h42l31 3 28 5 24 6 36 12 28 11 25 11 29 14 23 10 20 6 12 2h16l15-3 14-6 12-8 13-12 8-10 10-17 6-16 3-12 1-8v-14l-3-14-5-12-10-14-13-13-16-12-18-11-22-12-23-11-33-13-30-10-42-11-29-6-39-6-28-3-35-2z" fill="#F26E21"/>
<path transform="translate(845)" d="m0 0h27l37 2 33 4 24 4 27 6 29 8 31 11 23 10 24 12 17 10 15 10 19 14 11 10 8 7 12 12 9 11 10 13 12 20 9 19 7 22 4 21 1 20h249l11 16 14 20 16 23 14 20 16 23 28 40 16 23 28 40 16 23 10 14v28h-448l-5-15-18-60-14-47-15-50-28-94v-4h76l-3-25-5-19-9-21-9-15-12-16-9-10-7-8-8-7-12-10-18-13-20-12-23-12-25-11-36-12-26-7-30-6-28-4-22-2-18-1h-43l-30 2-32 4-36 7-30 8-32 11-25 11-20 10-20 12-17 12-11 9-10 9-17 17-12 16-8 13-8 16-7 20-3 15-2 19h37l-1 8-13 43-43 144-22 74-1 1h-182l-291-2 4-7 10-13 10-14 13-18 14-19 13-18 14-19 10-14 14-19 26-36 14-19 13-18 14-19 13-18 12-16 1-1h287l1-19 4-22 6-19 7-16 8-15 8-12 9-12 13-15 13-13 8-7 15-12 20-14 19-11 23-12 15-7 23-9 30-10 36-9 27-5 29-4 27-2z" fill="#F26E21"/>
<path transform="translate(586,246)" d="m0 0h498l3 7 28 94 15 50 14 47 20 67 1 5h-660l3-12 30-100 14-47 20-67 13-43z" fill="#F26E21"/>
<path transform="translate(500,535)" d="m0 0h665l-5 18-8 18-9 16-11 15-12 14-14 14-11 9-13 10-15 10-19 11-16 8-22 10-34 12-31 8-25 5-27 4-35 3h-51l-35-3-28-4-29-6-29-8-26-9-23-10-17-8-21-12-16-11-13-10-14-12-16-16-11-14-10-15-11-21-7-21z" fill="#F26E21"/>
<path transform="translate(0,535)" d="m0 0h471l-1 10-6 22-8 20-12 23-12 17-11 13-11 12-12 11-13 10-15 10-18 10-17 8-25 9-25 6-31 4h-37l-24-3-24-5-25-8-23-10-18-10-12-8-12-9-13-11-17-17-11-14-7-10-9-15-8-16-7-18-5-19z" fill="#F26E21"/>
<path transform="translate(1208,535)" d="m0 0h444v63l-9 16-11 15-9 11-14 15-8 7-15 12-15 10-18 10-17 8-30 10-23 5-25 3h-36l-24-3-23-5-20-6-26-11-21-12-17-12-11-9-12-11-9-9-9-11-11-15-12-21-8-18-6-18-5-22z" fill="#F26E21"/>
</svg>
